<svg width="189" height="189" viewBox="0 0 189 189" fill="none" xmlns="http://www.w3.org/2000/svg">
<path fill-rule="evenodd" clip-rule="evenodd" d="M125.911 57.7759C132.664 57.7759 138.711 61.2673 142.086 67.1163C145.462 72.9646 145.462 79.9477 142.086 85.7955L110.675 140.206C107.3 146.054 101.253 149.546 94.5008 149.546C87.7479 149.546 81.7011 146.054 78.3246 140.206L46.9147 85.7955C43.5387 79.9471 43.5387 72.9641 46.9147 67.1157C50.2906 61.2673 56.3374 57.7759 63.0898 57.7759H125.911ZM63.0898 61.6524C57.739 61.6524 52.9469 64.4192 50.2717 69.054C47.596 73.6889 47.596 79.2225 50.2717 83.8573L59.1796 99.2882C59.5066 97.094 60.2418 94.942 61.4011 92.9337C64.5823 87.4228 70.296 84.1325 76.684 84.1325L79.0567 84.17L79.0784 84.1325H108.583L109.25 83.019C111.853 78.5101 111.866 72.8966 109.268 68.3964C106.794 64.1104 102.565 61.6524 97.6669 61.6524L63.0898 61.6524ZM121.499 113.704L138.729 83.8573C141.404 79.223 141.404 73.6889 138.73 69.0546C136.054 64.4192 131.262 61.6524 125.911 61.6524H108.555C110.154 62.9653 111.539 64.5769 112.625 66.4581C115.913 72.154 115.9 79.2527 112.591 84.9843L111.359 87.0399L96.6071 112.593L97.2376 113.728C99.7543 118.089 104.291 120.708 109.357 120.708C114.423 120.708 118.96 118.089 121.493 113.7L121.499 113.704ZM82.4355 88.009L94.3796 108.699L106.323 88.009H82.4355ZM94.5003 145.669C99.8516 145.669 104.643 142.902 107.318 138.268L115.929 123.351C113.88 124.152 111.663 124.585 109.357 124.585C102.89 124.585 97.0981 121.241 93.8649 115.639L92.6855 113.518L77.9717 88.0302L76.6531 88.009C71.697 88.009 67.2385 90.5747 64.7581 94.872C62.2133 99.2801 62.23 104.573 64.8035 109.03L81.6816 138.268C84.3573 142.902 89.1495 145.669 94.5003 145.669ZM74.4804 47.1995C80.8521 44.5042 87.5253 43.1566 94.5001 43.1566C101.475 43.1566 108.148 44.5042 114.52 47.1995C119.104 49.1387 123.298 51.6725 127.1 54.8009L126.99 54.7952L125.988 54.7695L125.911 54.7685H120.376C118.046 53.2525 115.581 51.9442 112.979 50.8436C107.1 48.3566 100.94 47.1132 94.5001 47.1132C88.0603 47.1132 81.9007 48.3566 76.0216 50.8436C73.4196 51.9442 70.954 53.2525 68.6245 54.7685L63.049 54.7688L62.5179 54.776L62.3991 54.78L61.8928 54.8069C65.6973 51.6757 69.8931 49.1399 74.4804 47.1995ZM145.931 94.5927C145.931 101.568 144.583 108.242 141.888 114.615C139.286 120.769 135.612 126.218 130.867 130.963C126.122 135.709 120.673 139.383 114.52 141.986C113.899 142.248 113.276 142.498 112.65 142.735L112.717 142.631L113.24 141.776L113.28 141.71L116.047 136.915C120.487 134.658 124.494 131.741 128.069 128.166C132.451 123.784 135.842 118.753 138.245 113.073C140.731 107.193 141.974 101.033 141.974 94.5926C141.974 93.7608 141.954 92.9337 141.912 92.1113L142.685 90.7718L144.189 88.1673L144.71 87.2639L144.969 86.8004L145.025 86.6956L145.262 86.2304C145.708 88.9679 145.931 91.7553 145.931 94.5927ZM74.4804 141.986C68.3271 139.383 62.878 135.709 58.1332 130.963C53.3884 126.218 49.7146 120.769 47.112 114.615C44.417 108.242 43.0695 101.568 43.0695 94.5927C43.0695 91.7583 43.292 88.9738 43.7369 86.2391L43.794 86.351L44.2726 87.2317L44.3105 87.2992L47.088 92.1105C47.0465 92.9332 47.0257 93.7606 47.0257 94.5926C47.0257 101.033 48.269 107.193 50.7557 113.073C53.1579 118.753 56.5496 123.784 60.9306 128.166C64.5057 131.741 68.513 134.658 72.9526 136.915L73.2145 137.369L75.2192 140.841L75.7412 141.745L76.0134 142.202L76.0763 142.303L76.3594 142.738C75.7302 142.5 75.1039 142.25 74.4804 141.986Z" fill="#0C4F93"/>
<path fill-rule="evenodd" clip-rule="evenodd" d="M0.916367 94.5001C0.916367 42.8097 42.8152 0.906372 94.5001 0.906372C146.185 0.906372 188.084 42.8097 188.084 94.5001C188.084 146.19 146.185 188.094 94.5001 188.094C42.8152 188.094 0.916367 146.19 0.916367 94.5001ZM85.4121 16.2448C85.7941 16.4887 86.6645 16.7148 88.0233 16.9232C90.7427 17.3579 92.499 17.9301 93.2922 18.6399C93.7521 19.0475 94.0953 19.6051 94.3219 20.3128C94.5233 20.9418 94.6766 21.8316 94.7818 22.9821C94.8904 24.1682 94.9071 25.0883 94.8321 25.7427C94.7401 26.5065 94.5073 27.1078 94.1338 27.5466C93.446 28.383 91.8448 28.9161 89.3302 29.1462C87.199 29.3412 85.6809 29.2597 84.7759 28.9018C83.7875 28.5157 82.8515 27.5717 81.9677 26.0698L82.68 25.4516L82.6812 25.4649L83.3814 24.8613C84.1385 26.159 84.9107 26.9831 85.6981 27.3337C86.4108 27.6552 87.5743 27.7421 89.1882 27.5944C89.9373 27.5259 90.3988 27.2139 90.5728 26.6584C90.733 26.1492 90.7405 25.1008 90.5953 23.5134C90.5276 22.7732 90.2975 22.2727 89.905 22.0118C89.5125 21.751 88.627 21.5082 87.2488 21.2836C84.4832 20.8352 82.7018 20.2832 81.9045 19.6278C81.4382 19.2478 81.0901 18.7355 80.8603 18.0911C80.6647 17.5245 80.5191 16.7194 80.4236 15.6761C80.2262 13.5178 80.5035 12.0267 81.2553 11.2025C81.9982 10.3791 83.5379 9.86056 85.8742 9.64687C87.5952 9.48939 88.8984 9.53209 89.7838 9.77482C90.7446 10.0556 91.8131 10.7267 92.9892 11.7882L93.0026 11.787L93.0038 11.8003L93.1206 11.8976L91.9406 13.1521C90.9096 12.2032 90.0009 11.6074 89.2144 11.3646C88.483 11.1348 87.4173 11.0839 86.0173 11.212C85.3842 11.2699 84.9822 11.545 84.8115 12.0372C84.6318 12.5303 84.6048 13.4635 84.7304 14.8369C84.7932 15.5236 85.0204 15.9929 85.4121 16.2448ZM107.937 10.4192C107.241 10.2905 106.538 10.1787 105.828 10.084L105.811 10.1902L105.837 10.1944L102.84 29.0595L102.814 29.0552L102.797 29.1614L106.988 29.8275L110.02 10.7502C109.333 10.6229 108.638 10.5125 107.937 10.4192ZM125.804 34.8713C125.816 34.8679 125.833 34.881 125.854 34.9108C125.886 34.9049 125.898 34.9101 125.891 34.9266L125.323 36.2613L115.104 31.907L115.146 31.8081L115.171 31.8186L122.657 14.2453L122.632 14.2348L122.674 14.1359C123.34 14.4003 123.995 14.6793 124.639 14.9731C125.297 15.2339 125.944 15.5095 126.579 15.7997L119.577 32.2361L125.792 34.8845C125.796 34.8772 125.8 34.8728 125.804 34.8713ZM150.161 30.0889C149.918 29.8899 149.661 29.7029 149.39 29.5277C149.14 29.3235 148.879 29.1339 148.608 28.9587L135.922 39.546L142.287 24.3589C141.682 23.8965 141.07 23.4513 140.452 23.0232C139.854 22.5662 139.238 22.1183 138.605 21.6796L138.579 21.7606L138.563 21.7823L131.444 40.3578L134.67 42.7051L150.161 30.0889ZM150.161 30.0889C150.166 30.0816 150.173 30.0869 150.183 30.1047L150.161 30.0889ZM62.7434 36.6459L62.7278 36.624L62.7168 36.6318L57.415 32.3103L56.2953 31.4091L47.2556 24.0601L44.2465 26.2024C43.9954 26.3592 43.7474 26.5358 43.5025 26.7322L43.5149 26.7728L43.5382 26.8056L47.476 37.6882L49.0188 36.5897L46.068 28.5992L52.6297 34.0189L53.7384 34.9279L47.961 39.0412L50.2975 45.4739L50.3131 45.4958L50.3255 45.5364C50.3359 45.551 50.3401 45.5645 50.338 45.577L51.9245 44.4474L50.0231 39.3209L54.8705 35.8698L59.0917 39.3447L62.801 36.7038L62.7855 36.6819L62.7434 36.6459ZM36.661 94.5001C36.661 62.553 62.5564 36.6548 94.5001 36.6548C126.444 36.6548 152.339 62.553 152.339 94.5001C152.339 126.447 126.444 152.345 94.5001 152.345C62.5564 152.345 36.661 126.447 36.661 94.5001ZM24.3389 46.5237C23.8991 47.0666 23.4708 47.6241 23.054 48.1959L38.3693 59.9657L42.0111 55.2258C43.1078 53.7985 43.8445 52.6706 44.2213 51.8421C44.6587 50.8907 44.7773 50.0162 44.5771 49.2186C44.3785 48.4335 43.8181 47.5681 42.8961 46.6223C42.0997 45.807 40.7926 44.7009 38.975 43.304C37.2283 41.9617 35.8405 41.0194 34.8117 40.4772C33.6512 39.8564 32.6427 39.567 31.7861 39.6089C30.924 39.6579 30.058 40.0428 29.1882 40.7634C28.4159 41.401 27.457 42.4654 26.3112 43.9566L24.3389 46.5237ZM150.791 59.9982L150.77 60.0148L150.735 60.0585L150.714 60.0752L147.899 56.4959L151.168 52.1129L147.489 47.4357L142.46 49.5802L141.256 48.0493C141.269 48.0508 141.282 48.046 141.296 48.0349L141.336 48.0206L141.357 48.0039L147.67 45.3622L152.054 50.9371L152.91 49.786L158.009 42.9719L150.169 46.3018L148.998 44.813L159.679 40.3591L159.711 40.3342L159.751 40.3198C159.959 40.5551 160.147 40.7944 160.316 41.0378L162.599 43.9413L155.691 53.323L154.845 54.4846L150.782 59.9876L150.791 59.9982ZM39.8477 55.7487L26.7478 45.6813L27.4516 44.7653C27.959 44.1049 28.4155 43.6651 28.821 43.4459C29.2915 43.1863 29.824 43.1325 30.4186 43.2846C31.4419 43.5401 33.3665 44.7538 36.1924 46.9255C39.1035 49.1627 40.8183 50.7008 41.3369 51.5397C41.6391 52.043 41.7409 52.5278 41.6423 52.9941C41.5535 53.3889 41.2799 53.8846 40.8216 54.4811L39.8477 55.7487ZM39.324 130.961C38.9126 130.396 38.4843 129.839 38.0391 129.288L22.7238 141.058L26.3657 145.798C27.4623 147.225 28.3624 148.228 29.0658 148.805C29.8724 149.473 30.6868 149.813 31.509 149.824C32.3187 149.835 33.2991 149.516 34.4503 148.868C35.4432 148.309 36.8484 147.33 38.6661 145.933C40.4128 144.591 41.6805 143.493 42.4693 142.638C43.3679 141.676 43.9072 140.776 44.0873 139.938C44.2619 139.092 44.113 138.157 43.6407 137.13C43.2236 136.22 42.4421 135.019 41.2963 133.528L39.324 130.961ZM166.151 141.086L166.13 141.069L166.122 141.079L159.817 138.427L158.489 137.878L147.745 133.374L145.461 136.278C145.264 136.499 145.076 136.738 144.896 136.995L144.92 137.031L144.952 137.056L151.796 146.388L152.967 144.899L147.884 138.064L155.707 141.415L157.027 141.975L152.642 147.55L156.697 153.063L156.718 153.08L156.741 153.115C156.755 153.127 156.763 153.138 156.764 153.15L157.969 151.62L154.7 147.237L158.378 142.56L163.407 144.704L166.223 141.125L166.201 141.108L166.151 141.086ZM26.4176 143.573L39.5176 133.505L40.2214 134.422C40.7288 135.082 41.0362 135.636 41.1435 136.085C41.2732 136.606 41.188 137.134 40.888 137.67C40.3776 138.593 38.7094 140.14 35.8835 142.312C32.9725 144.549 31.0449 145.81 30.1007 146.096C29.5367 146.258 29.042 146.232 28.6169 146.016C28.2583 145.828 27.8498 145.436 27.3915 144.84L26.4176 143.573ZM139.042 143.629C139.037 143.622 139.044 143.616 139.064 143.612L139.042 143.629ZM139.042 143.629L146.279 162.252L143.053 164.598L127.571 152.109L127.555 152.087L127.486 152.037C128.098 151.57 128.714 151.122 129.332 150.694C129.93 150.237 130.542 149.792 131.168 149.359L143.658 160.088L137.489 144.759C137.739 144.555 138 144.365 138.271 144.19C138.521 143.986 138.778 143.799 139.042 143.629ZM51.4096 168.277L51.394 168.299L51.3737 168.35L51.3581 168.372L47.6488 165.732L49.5502 160.605L44.7028 157.153L40.4817 160.628L38.8951 159.499C38.9075 159.497 38.919 159.488 38.9294 159.474L38.9637 159.449L38.9793 159.427L44.2921 155.113L50.0695 159.226L50.5655 157.881L53.5382 149.906L46.9546 155.31L45.4117 154.212L54.4047 146.929L54.428 146.896L54.4623 146.871C54.7281 147.038 54.9761 147.214 55.2064 147.4L58.2155 149.543L54.2311 160.491L53.7461 161.844L51.3986 168.269L51.4096 168.277ZM132.451 169.574C132.399 169.567 132.379 169.576 132.389 169.601L126.174 172.249L119.172 155.813C118.522 156.07 117.875 156.346 117.232 156.64C116.574 156.9 115.919 157.179 115.267 157.477L115.309 157.575L115.334 157.565L122.82 175.138L122.795 175.148L122.838 175.247L133.056 170.893L132.488 169.558C132.486 169.553 132.483 169.55 132.48 169.549C132.473 169.548 132.463 169.556 132.451 169.574ZM102.862 160.25C103.567 160.12 104.27 160.008 104.971 159.915C105.667 159.786 106.361 159.676 107.054 159.584L110.085 178.661L105.893 179.328L105.876 179.221L105.903 179.217L102.905 160.352L102.879 160.356L102.862 160.25ZM88.4651 167.248C87.1666 166.796 86.3517 166.416 86.0202 166.107C85.6807 165.788 85.5424 165.285 85.6052 164.598C85.7308 163.225 85.9267 162.312 86.1929 161.86C86.4501 161.407 86.8953 161.209 87.5284 161.267C88.9284 161.396 89.9672 161.639 90.6447 161.997C91.3741 162.379 92.1597 163.13 93.0013 164.25L94.3894 163.231L94.2922 163.114L94.2934 163.101L94.28 163.099C93.3161 161.842 92.3871 160.988 91.4932 160.537C90.6664 160.138 89.3926 159.86 87.6716 159.702C85.3353 159.488 83.7272 159.719 82.8472 160.394C81.9583 161.068 81.4151 162.484 81.2177 164.642C81.1223 165.686 81.1194 166.504 81.209 167.096C81.3181 167.772 81.5675 168.339 81.9571 168.797C82.6223 169.587 84.274 170.453 86.9123 171.395C88.2269 171.866 89.0537 172.265 89.3923 172.594C89.731 172.921 89.8665 173.455 89.7988 174.195C89.6536 175.783 89.456 176.812 89.2061 177.284C88.9342 177.799 88.4237 178.022 87.6747 177.953C86.0607 177.805 84.9324 177.509 84.2898 177.063C83.579 176.576 82.9691 175.625 82.46 174.212L81.662 174.679L81.6632 174.665L80.8507 175.144C81.4472 176.781 82.1965 177.88 83.0985 178.439C83.9235 178.955 85.4016 179.31 87.5328 179.505C90.0474 179.735 91.7188 179.501 92.5469 178.803C92.9938 178.44 93.3318 177.891 93.5608 177.157C93.7533 176.527 93.9038 175.619 94.0123 174.432C94.1175 173.282 94.1281 172.38 94.0442 171.724C93.9497 170.987 93.7134 170.376 93.335 169.892C92.6838 169.05 91.0604 168.169 88.4651 167.248Z" fill="#0C4F93"/>
</svg>
