<svg width="188" height="188" viewBox="0 0 188 188" fill="none" xmlns="http://www.w3.org/2000/svg">
<path fill-rule="evenodd" clip-rule="evenodd" d="M124.994 56.8695C131.747 56.8695 137.794 60.361 141.17 66.2099C144.546 72.0583 144.546 79.0413 141.17 84.8891L109.759 139.3C106.384 145.148 100.337 148.639 93.5845 148.639C86.8315 148.639 80.7847 145.148 77.4082 139.3L45.9983 84.8891C42.6224 79.0408 42.6224 72.0577 45.9983 66.2094C49.3743 60.361 55.421 56.8695 62.1734 56.8695H124.994ZM62.1734 60.7461C56.8226 60.7461 52.0305 63.5129 49.3553 68.1477C46.6797 72.7825 46.6797 78.3161 49.3553 82.9509L58.2633 98.3818C58.5903 96.1877 59.3254 94.0356 60.4847 92.0273C63.666 86.5165 69.3796 83.2262 75.7676 83.2262L78.1403 83.2637L78.162 83.2262H107.666L108.334 82.1127C110.937 77.6038 110.95 71.9902 108.352 67.4901C105.877 63.2041 101.649 60.7461 96.7506 60.7461L62.1734 60.7461ZM120.582 112.798L137.813 82.9509C140.488 78.3167 140.488 72.7825 137.814 68.1482C135.138 63.5129 130.346 60.7461 124.994 60.7461H107.639C109.238 62.059 110.623 63.6706 111.709 65.5518C114.997 71.2476 114.984 78.3464 111.674 84.0779L110.443 86.1335L95.6908 111.687L96.3213 112.821C98.8379 117.182 103.375 119.802 108.441 119.802C113.507 119.802 118.044 117.182 120.576 112.794L120.582 112.798ZM81.5191 87.1027L93.4633 107.793L105.407 87.1027H81.5191ZM93.5839 144.763C98.9353 144.763 103.726 141.996 106.402 137.361L115.013 122.445C112.964 123.246 110.747 123.679 108.441 123.679C101.973 123.679 96.1817 120.334 92.9486 114.732L91.7691 112.611L77.0553 87.1239L75.7368 87.1027C70.7807 87.1027 66.3222 89.6683 63.8417 93.9656C61.297 98.3738 61.3137 103.666 63.8871 108.124L80.7652 137.361C83.441 141.996 88.2331 144.763 93.5839 144.763ZM73.5641 46.2932C79.9357 43.5979 86.609 42.2502 93.5838 42.2502C100.559 42.2502 107.232 43.5979 113.603 46.2932C118.188 48.2324 122.381 50.7662 126.184 53.8946L126.073 53.8889L125.072 53.8631L124.995 53.8621H119.459C117.13 52.3462 114.664 51.0379 112.062 49.9372C106.183 47.4503 100.024 46.2068 93.5838 46.2068C87.1439 46.2068 80.9844 47.4503 75.1052 49.9372C72.5033 51.0379 70.0376 52.3462 67.7082 53.8622L62.1326 53.8624L61.6016 53.8696L61.4828 53.8736L60.9765 53.9005C64.781 50.7694 68.9768 48.2336 73.5641 46.2932ZM145.014 93.6863C145.014 100.662 143.667 107.336 140.972 113.708C138.369 119.862 134.696 125.312 129.951 130.057C125.206 134.802 119.757 138.477 113.603 141.08C112.983 141.342 112.36 141.592 111.733 141.829L111.801 141.724L112.324 140.869L112.363 140.803L115.131 136.009C119.571 133.751 123.578 130.835 127.153 127.259C131.534 122.878 134.926 117.847 137.328 112.167C139.815 106.287 141.058 100.127 141.058 93.6863C141.058 92.8545 141.037 92.0274 140.996 91.2049L141.769 89.8655L143.272 87.261L143.794 86.3575L144.053 85.8941L144.109 85.7892L144.345 85.324C144.791 88.0615 145.014 90.849 145.014 93.6863ZM73.5641 141.079C67.4107 138.477 61.9617 134.802 57.2168 130.057C52.472 125.312 48.7983 119.862 46.1956 113.708C43.5007 107.336 42.1532 100.662 42.1532 93.6863C42.1532 90.852 42.3756 88.0675 42.8206 85.3328L42.8777 85.4446L43.3563 86.3253L43.3941 86.3928L46.1716 91.2042C46.1301 92.0269 46.1094 92.8543 46.1094 93.6863C46.1094 100.127 47.3527 106.287 49.8393 112.167C52.2415 117.847 55.6332 122.878 60.0143 127.259C63.5893 130.835 67.5966 133.751 72.0362 136.009L72.2982 136.462L74.3029 139.935L74.8248 140.839L75.0971 141.296L75.1599 141.397L75.4431 141.832C74.8139 141.594 74.1875 141.343 73.5641 141.079Z" fill="#FEFEFF"/>
<path fill-rule="evenodd" clip-rule="evenodd" d="M0 93.5938C0 41.9033 41.8989 0 93.5838 0C145.268 0 187.167 41.9033 187.167 93.5938C187.167 145.284 145.268 187.187 93.5838 187.187C41.8989 187.187 0 145.284 0 93.5938ZM84.4957 15.3384C84.8777 15.5823 85.7481 15.8085 87.107 16.0168C89.8263 16.4515 91.5826 17.0237 92.3758 17.7335C92.8358 18.1411 93.179 18.6987 93.4055 19.4064C93.6069 20.0355 93.7603 20.9252 93.8655 22.0757C93.974 23.2618 93.9907 24.182 93.9157 24.8363C93.8237 25.6001 93.591 26.2015 93.2175 26.6403C92.5297 27.4766 90.9285 28.0098 88.4138 28.2398C86.2826 28.4348 84.7645 28.3533 83.8596 27.9955C82.8712 27.6093 81.9351 26.6653 81.0514 25.1634L81.7637 24.5452L81.7648 24.5585L82.465 23.9549C83.2221 25.2526 83.9943 26.0767 84.7817 26.4274C85.4944 26.7488 86.6579 26.8358 88.2719 26.6881C89.0209 26.6195 89.4824 26.3075 89.6564 25.7521C89.8166 25.2428 89.8241 24.1945 89.6789 22.6071C89.6113 21.8668 89.3811 21.3663 88.9886 21.1054C88.5961 20.8446 87.7107 20.6018 86.3324 20.3772C83.5668 19.9288 81.7854 19.3768 80.9882 18.7214C80.5218 18.3414 80.1737 17.8291 79.944 17.1847C79.7483 16.6181 79.6027 15.8131 79.5073 14.7697C79.3098 12.6115 79.5871 11.1203 80.339 10.2961C81.0819 9.47276 82.6215 8.95419 84.9578 8.7405C86.6788 8.58301 87.9821 8.62571 88.8674 8.86845C89.8283 9.14919 90.8968 9.82035 92.0729 10.8818L92.0862 10.8806L92.0874 10.894L92.2042 10.9912L91.0242 12.2457C89.9932 11.2969 89.0845 10.7011 88.298 10.4583C87.5666 10.2284 86.501 10.1775 85.101 10.3056C84.4678 10.3636 84.0659 10.6386 83.8951 11.1308C83.7154 11.6239 83.6884 12.5571 83.814 13.9305C83.8768 14.6172 84.1041 15.0865 84.4957 15.3384ZM107.021 9.5128C106.325 9.38408 105.622 9.27237 104.911 9.1776L104.895 9.28378L104.921 9.28798L101.924 28.1531L101.897 28.1488L101.88 28.255L106.072 28.9211L109.103 9.84381C108.416 9.71649 107.722 9.60617 107.021 9.5128ZM124.888 33.965C124.9 33.9615 124.916 33.9746 124.938 34.0044C124.97 33.9985 124.982 34.0037 124.975 34.0202L124.406 35.3549L114.187 31.0006L114.229 30.9017L114.254 30.9122L121.741 13.339L121.716 13.3284L121.757 13.2296C122.424 13.4939 123.079 13.773 123.723 14.0667C124.381 14.3275 125.027 14.6031 125.663 14.8933L118.661 31.3297L124.876 33.9781C124.879 33.9708 124.883 33.9664 124.888 33.965ZM149.245 29.1825C149.002 28.9836 148.745 28.7965 148.474 28.6213C148.223 28.4172 147.963 28.2275 147.691 28.0523L135.006 38.6396L141.371 23.4525C140.766 22.9901 140.154 22.5449 139.535 22.1168C138.938 21.6598 138.322 21.2119 137.689 20.7732L137.663 20.8542L137.647 20.8759L130.528 39.4514L133.754 41.7987L149.245 29.1825ZM149.245 29.1825C149.25 29.1752 149.257 29.1805 149.267 29.1983L149.245 29.1825ZM61.827 35.7395L61.8114 35.7176L61.8005 35.7254L56.4986 31.404L55.379 30.5028L46.3392 23.1537L43.3302 25.2961C43.079 25.4528 42.831 25.6294 42.5861 25.8258L42.5985 25.8664L42.6219 25.8993L46.5596 36.7818L48.1024 35.6833L45.1516 27.6928L51.7133 33.1125L52.8221 34.0215L47.0446 38.1349L49.3812 44.5675L49.3967 44.5894L49.4091 44.63C49.4195 44.6446 49.4237 44.6582 49.4216 44.6707L51.0082 43.541L49.1067 38.4145L53.9541 34.9634L58.1753 38.4383L61.8847 35.7974L61.8691 35.7755L61.827 35.7395ZM35.7446 93.5938C35.7446 61.6466 61.6401 35.7484 93.5838 35.7484C125.528 35.7484 151.423 61.6466 151.423 93.5938C151.423 125.541 125.528 151.439 93.5838 151.439C61.6401 151.439 35.7446 125.541 35.7446 93.5938ZM23.4225 45.6173C22.9827 46.1602 22.5545 46.7177 22.1376 47.2896L37.4529 59.0593L41.0947 54.3194C42.1914 52.8921 42.9281 51.7642 43.305 50.9357C43.7423 49.9844 43.8609 49.1099 43.6607 48.3122C43.4621 47.5271 42.9018 46.6617 41.9797 45.7159C41.1833 44.9006 39.8763 43.7945 38.0586 42.3976C36.3119 41.0553 34.9242 40.113 33.8953 39.5708C32.7348 38.95 31.7263 38.6606 30.8697 38.7025C30.0076 38.7516 29.1417 39.1364 28.2718 39.8571C27.4996 40.4946 26.5406 41.5591 25.3948 43.0503L23.4225 45.6173ZM149.874 59.0918L149.853 59.1084L149.819 59.1522L149.798 59.1688L146.983 55.5895L150.251 51.2066L146.573 46.5293L141.544 48.6739L140.34 47.1429C140.353 47.1444 140.366 47.1396 140.38 47.1286L140.42 47.1142L140.441 47.0976L146.754 44.4559L151.138 50.0307L151.993 48.8796L157.092 42.0656L149.253 45.3954L148.082 43.9067L158.762 39.4527L158.794 39.4278L158.834 39.4134C159.042 39.6487 159.231 39.888 159.399 40.1314L161.683 43.0349L154.775 52.4167L153.928 53.5783L149.866 59.0812L149.874 59.0918ZM38.9314 54.8423L25.8314 44.7749L26.5352 43.8589C27.0426 43.1985 27.4991 42.7587 27.9046 42.5396C28.3751 42.28 28.9077 42.2262 29.5023 42.3782C30.5256 42.6338 32.4501 43.8474 35.276 46.0191C38.1871 48.2563 39.902 49.7944 40.4205 50.6333C40.7227 51.1366 40.8245 51.6214 40.7259 52.0878C40.6371 52.4826 40.3636 52.9782 39.9053 53.5747L38.9314 54.8423ZM38.4076 130.054C37.9962 129.489 37.568 128.932 37.1227 128.382L21.8074 140.151L25.4494 144.891C26.546 146.319 27.446 147.321 28.1495 147.899C28.9561 148.567 29.7705 148.906 30.5926 148.918C31.4023 148.928 32.3827 148.61 33.534 147.962C34.5268 147.403 35.9321 146.424 37.7497 145.027C39.4964 143.685 40.7641 142.587 41.5529 141.732C42.4515 140.77 42.9909 139.87 43.1709 139.031C43.3455 138.186 43.1967 137.25 42.7244 136.223C42.3072 135.313 41.5257 134.112 40.38 132.621L38.4076 130.054ZM165.235 140.179L165.214 140.163L165.205 140.173L158.901 137.521L157.573 136.972L146.828 132.468L144.545 135.372C144.348 135.593 144.16 135.832 143.98 136.089L144.004 136.125L144.035 136.15L150.88 145.481L152.051 143.993L146.968 137.158L154.791 140.508L156.111 141.068L151.726 146.643L155.78 152.157L155.801 152.173L155.825 152.209C155.839 152.22 155.847 152.231 155.848 152.244L157.053 150.713L153.784 146.33L157.462 141.653L162.491 143.798L165.307 140.219L165.285 140.202L165.235 140.179ZM25.5012 142.666L38.6012 132.599L39.305 133.515C39.8124 134.175 40.1198 134.73 40.2271 135.178C40.3568 135.7 40.2716 136.228 39.9716 136.764C39.4612 137.687 37.7931 139.234 34.9672 141.406C32.0561 143.643 30.1285 144.904 29.1843 145.189C28.6203 145.352 28.1257 145.325 27.7005 145.11C27.3419 144.922 26.9335 144.53 26.4751 143.934L25.5012 142.666ZM138.126 142.722C138.121 142.715 138.128 142.71 138.147 142.706L138.126 142.722ZM138.126 142.722L145.362 161.345L142.137 163.692L126.655 151.203L126.639 151.181L126.57 151.131C127.182 150.664 127.797 150.216 128.416 149.788C129.014 149.331 129.626 148.886 130.252 148.452L142.742 159.182L136.573 143.853C136.823 143.648 137.084 143.459 137.354 143.284C137.605 143.079 137.862 142.892 138.126 142.722ZM50.4932 167.37L50.4776 167.393L50.4574 167.444L50.4418 167.466L46.7324 164.825L48.6338 159.698L43.7865 156.247L39.5653 159.722L37.9787 158.592C37.9912 158.59 38.0026 158.582 38.013 158.568L38.0473 158.543L38.0629 158.52L43.3757 154.207L49.1531 158.32L49.6491 156.975L52.6218 149L46.0382 154.404L44.4953 153.306L53.4883 146.022L53.5117 145.989L53.546 145.964C53.8117 146.132 54.0597 146.308 54.2901 146.494L57.2991 148.637L53.3147 159.585L52.8298 160.938L50.4822 167.362L50.4932 167.37ZM131.534 168.668C131.483 168.661 131.462 168.669 131.473 168.694L125.257 171.342L118.255 154.907C117.605 155.163 116.959 155.439 116.315 155.733C115.658 155.994 115.003 156.273 114.35 156.57L114.392 156.669L114.417 156.658L121.904 174.232L121.879 174.242L121.921 174.341L132.14 169.986L131.572 168.652C131.569 168.647 131.566 168.644 131.563 168.643C131.556 168.641 131.547 168.65 131.534 168.668ZM101.946 159.344C102.65 159.214 103.353 159.102 104.055 159.009C104.751 158.88 105.445 158.769 106.137 158.678L109.169 177.755L104.977 178.421L104.96 178.315L104.986 178.311L101.989 159.446L101.963 159.45L101.946 159.344ZM87.5487 166.341C86.2502 165.89 85.4353 165.51 85.1038 165.2C84.7644 164.882 84.626 164.379 84.6888 163.692C84.8145 162.319 85.0104 161.406 85.2765 160.954C85.5338 160.501 85.979 160.303 86.612 160.361C88.012 160.489 89.0508 160.733 89.7283 161.091C90.4577 161.473 91.2433 162.224 92.085 163.343L93.4731 162.324L93.3759 162.207L93.3771 162.194L93.3637 162.193C92.3997 160.936 91.4707 160.082 90.5768 159.631C89.7501 159.232 88.4762 158.954 86.7552 158.796C84.4189 158.582 82.8108 158.813 81.9308 159.488C81.0419 160.162 80.4987 161.578 80.3013 163.736C80.2059 164.78 80.203 165.597 80.2926 166.19C80.4017 166.866 80.6511 167.432 81.0408 167.891C81.7059 168.68 83.3577 169.546 85.9959 170.489C87.3106 170.96 88.1373 171.359 88.476 171.687C88.8146 172.015 88.9501 172.549 88.8824 173.289C88.7372 174.876 88.5397 175.906 88.2897 176.378C88.0178 176.893 87.5074 177.115 86.7583 177.047C85.1443 176.899 84.016 176.603 83.3734 176.157C82.6627 175.669 82.0527 174.719 81.5436 173.306L80.7457 173.772L80.7468 173.758L79.9343 174.237C80.5309 175.875 81.2802 176.973 82.1821 177.532C83.0071 178.048 84.4852 178.404 86.6164 178.598C89.131 178.829 90.8024 178.595 91.6306 177.897C92.0774 177.534 92.4154 176.984 92.6444 176.25C92.8369 175.62 92.9874 174.712 93.0959 173.526C93.2011 172.375 93.2117 171.473 93.1278 170.818C93.0333 170.081 92.797 169.47 92.4187 168.986C91.7674 168.144 90.144 167.262 87.5487 166.341Z" fill="#FEFEFF"/>
</svg>
